<?xml version="1.0" encoding="UTF-8" standalone="no"?>
<!DOCTYPE svg PUBLIC "-//W3C//DTD SVG 1.1//EN"
 "http://www.w3.org/Graphics/SVG/1.1/DTD/svg11.dtd">
<!-- Generated by graphviz version 2.40.1 (20161225.0304)
 -->
<!-- Title: dependencies Pages: 1 -->
<svg width="1302pt" height="284pt"
 viewBox="0.00 0.00 1302.00 284.00" xmlns="http://www.w3.org/2000/svg" xmlns:xlink="http://www.w3.org/1999/xlink">
<g id="graph0" class="graph" transform="scale(1 1) rotate(0) translate(4 280)">
<title>dependencies</title>
<polygon fill="#ffffff" stroke="transparent" points="-4,4 -4,-280 1298,-280 1298,4 -4,4"/>
<text text-anchor="start" x="626.0091" y="-42.4" font-family="sans-serif" font-weight="bold" font-size="14.00" fill="#000000">Legend</text>
<polygon fill="#ffffb3" stroke="transparent" points="413,-10 413,-30 433,-30 433,-10 413,-10"/>
<text text-anchor="start" x="436.629" y="-15.4" font-family="sans-serif" font-size="14.00" fill="#000000"> &#160;Declarations</text>
<polygon fill="#8dd3c7" stroke="transparent" points="526,-10 526,-30 546,-30 546,-10 526,-10"/>
<text text-anchor="start" x="549.7251" y="-15.4" font-family="sans-serif" font-size="14.00" fill="#000000"> &#160;Module</text>
<polygon fill="#80b1d3" stroke="transparent" points="612,-10 612,-30 632,-30 632,-10 612,-10"/>
<text text-anchor="start" x="635.7812" y="-15.4" font-family="sans-serif" font-size="14.00" fill="#000000"> &#160;Bootstrap</text>
<polygon fill="#fdb462" stroke="transparent" points="709,-10 709,-30 729,-30 729,-10 709,-10"/>
<text text-anchor="start" x="732.6732" y="-15.4" font-family="sans-serif" font-size="14.00" fill="#000000"> &#160;Providers</text>
<polygon fill="#fb8072" stroke="transparent" points="805,-10 805,-30 825,-30 825,-10 805,-10"/>
<text text-anchor="start" x="828.7258" y="-15.4" font-family="sans-serif" font-size="14.00" fill="#000000"> &#160;Exports</text>
<g id="clust1" class="cluster">
<title>cluster_AppModule</title>
<polygon fill="none" stroke="#000000" stroke-dasharray="1,5" points="8,-70 8,-268 1286,-268 1286,-70 8,-70"/>
</g>
<g id="clust2" class="cluster">
<title>cluster_AppModule_declarations</title>
<polygon fill="none" stroke="#000000" points="168,-78 168,-130 1278,-130 1278,-78 168,-78"/>
</g>
<g id="clust10" class="cluster">
<title>cluster_AppModule_imports</title>
<polygon fill="none" stroke="#000000" points="16,-78 16,-130 160,-130 160,-78 16,-78"/>
</g>
<g id="clust12" class="cluster">
<title>cluster_AppModule_bootstrap</title>
<polygon fill="none" stroke="#000000" points="569,-208 569,-260 693,-260 693,-208 569,-208"/>
</g>
<!-- AppComponent -->
<g id="node1" class="node">
<title>AppComponent</title>
<polygon fill="#ffffb3" stroke="#000000" points="1269.9399,-122 1164.0601,-122 1164.0601,-86 1269.9399,-86 1269.9399,-122"/>
<text text-anchor="middle" x="1217" y="-99.8" font-family="Times,serif" font-size="14.00" fill="#000000">AppComponent</text>
</g>
<!-- AppModule -->
<g id="node8" class="node">
<title>AppModule</title>
<polygon fill="#8dd3c7" stroke="#000000" points="672.6571,-187 669.6571,-191 648.6571,-191 645.6571,-187 589.3429,-187 589.3429,-151 672.6571,-151 672.6571,-187"/>
<text text-anchor="middle" x="631" y="-164.8" font-family="Times,serif" font-size="14.00" fill="#000000">AppModule</text>
</g>
<!-- AppComponent&#45;&gt;AppModule -->
<g id="edge1" class="edge">
<title>AppComponent&#45;&gt;AppModule</title>
<path fill="none" stroke="#000000" d="M1217,-122.2921C1217,-144.2057 1217,-178 1217,-178 1217,-178 682.6739,-178 682.6739,-178"/>
<polygon fill="#000000" stroke="#000000" points="682.6739,-174.5001 672.6739,-178 682.6739,-181.5001 682.6739,-174.5001"/>
</g>
<!-- ComicsDetailsComponent -->
<g id="node2" class="node">
<title>ComicsDetailsComponent</title>
<polygon fill="#ffffb3" stroke="#000000" points="1145.7618,-122 982.2382,-122 982.2382,-86 1145.7618,-86 1145.7618,-122"/>
<text text-anchor="middle" x="1064" y="-99.8" font-family="Times,serif" font-size="14.00" fill="#000000">ComicsDetailsComponent</text>
</g>
<!-- ComicsDetailsComponent&#45;&gt;AppModule -->
<g id="edge2" class="edge">
<title>ComicsDetailsComponent&#45;&gt;AppModule</title>
<path fill="none" stroke="#000000" d="M1064,-122.1061C1064,-141.3391 1064,-169 1064,-169 1064,-169 682.9113,-169 682.9113,-169"/>
<polygon fill="#000000" stroke="#000000" points="682.9113,-165.5001 672.9113,-169 682.9113,-172.5001 682.9113,-165.5001"/>
</g>
<!-- ComicsListComponent -->
<g id="node3" class="node">
<title>ComicsListComponent</title>
<polygon fill="#ffffb3" stroke="#000000" points="963.8878,-122 818.1122,-122 818.1122,-86 963.8878,-86 963.8878,-122"/>
<text text-anchor="middle" x="891" y="-99.8" font-family="Times,serif" font-size="14.00" fill="#000000">ComicsListComponent</text>
</g>
<!-- ComicsListComponent&#45;&gt;AppModule -->
<g id="edge3" class="edge">
<title>ComicsListComponent&#45;&gt;AppModule</title>
<path fill="none" stroke="#000000" d="M891,-122.027C891,-138.3976 891,-160 891,-160 891,-160 682.7735,-160 682.7735,-160"/>
<polygon fill="#000000" stroke="#000000" points="682.7735,-156.5001 672.7735,-160 682.7735,-163.5001 682.7735,-156.5001"/>
</g>
<!-- ComicsRareComponent -->
<g id="node4" class="node">
<title>ComicsRareComponent</title>
<polygon fill="#ffffb3" stroke="#000000" points="800.0365,-122 649.9635,-122 649.9635,-86 800.0365,-86 800.0365,-122"/>
<text text-anchor="middle" x="725" y="-99.8" font-family="Times,serif" font-size="14.00" fill="#000000">ComicsRareComponent</text>
</g>
<!-- ComicsRareComponent&#45;&gt;AppModule -->
<g id="edge4" class="edge">
<title>ComicsRareComponent&#45;&gt;AppModule</title>
<path fill="none" stroke="#000000" d="M661.2802,-122.1061C661.2802,-122.1061 661.2802,-140.991 661.2802,-140.991"/>
<polygon fill="#000000" stroke="#000000" points="657.7802,-140.9909 661.2802,-150.991 664.7802,-140.991 657.7802,-140.9909"/>
</g>
<!-- ComicsRareDetailsComponent -->
<g id="node5" class="node">
<title>ComicsRareDetailsComponent</title>
<polygon fill="#ffffb3" stroke="#000000" points="632.1881,-122 441.8119,-122 441.8119,-86 632.1881,-86 632.1881,-122"/>
<text text-anchor="middle" x="537" y="-99.8" font-family="Times,serif" font-size="14.00" fill="#000000">ComicsRareDetailsComponent</text>
</g>
<!-- ComicsRareDetailsComponent&#45;&gt;AppModule -->
<g id="edge5" class="edge">
<title>ComicsRareDetailsComponent&#45;&gt;AppModule</title>
<path fill="none" stroke="#000000" d="M610.6329,-122.1061C610.6329,-122.1061 610.6329,-140.991 610.6329,-140.991"/>
<polygon fill="#000000" stroke="#000000" points="607.133,-140.9909 610.6329,-150.991 614.133,-140.991 607.133,-140.9909"/>
</g>
<!-- HomeComponent -->
<g id="node6" class="node">
<title>HomeComponent</title>
<polygon fill="#ffffb3" stroke="#000000" points="423.5451,-122 308.4549,-122 308.4549,-86 423.5451,-86 423.5451,-122"/>
<text text-anchor="middle" x="366" y="-99.8" font-family="Times,serif" font-size="14.00" fill="#000000">HomeComponent</text>
</g>
<!-- HomeComponent&#45;&gt;AppModule -->
<g id="edge6" class="edge">
<title>HomeComponent&#45;&gt;AppModule</title>
<path fill="none" stroke="#000000" d="M366,-122.027C366,-138.3976 366,-160 366,-160 366,-160 579.3022,-160 579.3022,-160"/>
<polygon fill="#000000" stroke="#000000" points="579.3023,-163.5001 589.3022,-160 579.3022,-156.5001 579.3023,-163.5001"/>
</g>
<!-- MenuComponent -->
<g id="node7" class="node">
<title>MenuComponent</title>
<polygon fill="#ffffb3" stroke="#000000" points="289.9916,-122 176.0084,-122 176.0084,-86 289.9916,-86 289.9916,-122"/>
<text text-anchor="middle" x="233" y="-99.8" font-family="Times,serif" font-size="14.00" fill="#000000">MenuComponent</text>
</g>
<!-- MenuComponent&#45;&gt;AppModule -->
<g id="edge7" class="edge">
<title>MenuComponent&#45;&gt;AppModule</title>
<path fill="none" stroke="#000000" d="M233,-122.1061C233,-141.3391 233,-169 233,-169 233,-169 579.1593,-169 579.1593,-169"/>
<polygon fill="#000000" stroke="#000000" points="579.1593,-172.5001 589.1593,-169 579.1592,-165.5001 579.1593,-172.5001"/>
</g>
<!-- AppComponent  -->
<g id="node10" class="node">
<title>AppComponent </title>
<polygon fill="#80b1d3" stroke="#000000" points="685.439,-252 576.561,-252 576.561,-216 685.439,-216 685.439,-252"/>
<text text-anchor="middle" x="631" y="-229.8" font-family="Times,serif" font-size="14.00" fill="#000000">AppComponent </text>
</g>
<!-- AppModule&#45;&gt;AppComponent  -->
<g id="edge9" class="edge">
<title>AppModule&#45;&gt;AppComponent </title>
<path fill="none" stroke="#000000" stroke-dasharray="1,5" d="M631,-187.1061C631,-187.1061 631,-205.991 631,-205.991"/>
<polygon fill="#000000" stroke="#000000" points="627.5001,-205.9909 631,-215.991 634.5001,-205.991 627.5001,-205.9909"/>
</g>
<!-- AppRoutingModule -->
<g id="node9" class="node">
<title>AppRoutingModule</title>
<polygon fill="#8dd3c7" stroke="#000000" points="152.2744,-122 149.2744,-126 128.2744,-126 125.2744,-122 23.7256,-122 23.7256,-86 152.2744,-86 152.2744,-122"/>
<text text-anchor="middle" x="88" y="-99.8" font-family="Times,serif" font-size="14.00" fill="#000000">AppRoutingModule</text>
</g>
<!-- AppRoutingModule&#45;&gt;AppModule -->
<g id="edge8" class="edge">
<title>AppRoutingModule&#45;&gt;AppModule</title>
<path fill="none" stroke="#000000" d="M88,-122.2921C88,-144.2057 88,-178 88,-178 88,-178 579.2933,-178 579.2933,-178"/>
<polygon fill="#000000" stroke="#000000" points="579.2934,-181.5001 589.2933,-178 579.2933,-174.5001 579.2934,-181.5001"/>
</g>
</g>
</svg>
